<svg width="40" height="40" viewBox="0 0 40 40" fill="none" xmlns="http://www.w3.org/2000/svg">
<g clip-path="url(#clip0_4482_1520)">
<path d="M27.0969 6.45166H12.9033V33.5484H27.0969V6.45166Z" fill="white"/>
<path d="M12.9032 6.45166H3.87097C1.74194 6.45166 0 8.00005 0 10.1936V29.8065C0 32 1.74194 33.5484 3.87097 33.5484H12.9032V6.45166Z" fill="#3757A6"/>
<path d="M36.1289 6.45166H27.0967V33.5484H36.1289C38.258 33.5484 39.9999 32 39.9999 29.8065V10.1936C39.9999 8.00005 38.258 6.45166 36.1289 6.45166Z" fill="#EF4F4E"/>
<path d="M36.1289 6.45166H27.0967V25.871L35.9999 33.5484C38.1289 33.5484 39.9999 32 39.9999 29.8065V10.1936C39.9999 8.00005 38.258 6.45166 36.1289 6.45166Z" fill="#DD4545"/>
<path d="M27.0969 25.871V6.45166H12.9033V14.1291L27.0969 25.871Z" fill="#E2F2F1"/>
<path d="M12.9034 6.45166H3.87109L12.9034 14.1291V6.45166Z" fill="#2A4D93"/>
<path d="M27.0967 33.5483H36.1289C38.258 33.5483 39.9999 32.258 39.9999 29.6774H27.0967V33.5483Z" fill="#CC3E3E"/>
<path d="M27.0969 29.6774H12.9033V33.5483H27.0969V29.6774Z" fill="#D6EAE8"/>
<path d="M0 29.6774C0 32.258 1.74194 33.5483 3.87097 33.5483H12.9032V29.6774H0Z" fill="#133970"/>
<path d="M36.1289 6.45166H27.0967V13.2904L39.9999 17.2904V10.1936C39.9999 8.00005 38.258 6.45166 36.1289 6.45166Z" fill="#CC3E3E"/>
<path d="M27.0969 13.2904V6.45166H12.9033V9.09682L27.0969 13.2904Z" fill="#D6EAE8"/>
<path d="M12.9034 6.45166H3.87109L12.9034 9.09682V6.45166Z" fill="#133970"/>
</g>
<defs>
<clipPath id="clip0_4482_1520">
<rect width="40" height="40" fill="white"/>
</clipPath>
</defs>
</svg>
