<svg width="40" height="40" viewBox="0 0 40 40" fill="none" xmlns="http://www.w3.org/2000/svg">
<g clip-path="url(#clip0_4482_1522)">
<path d="M0 24.5161V29.8064C0 32 1.74194 33.5484 3.87097 33.5484H36.129C38.2581 33.5484 40 32 40 29.8064V24.5161H0Z" fill="#F8D12E"/>
<path d="M36.129 6.45166H3.87097C1.74194 6.45166 0 8.00005 0 10.1936V15.4839H40V10.1936C40 8.00005 38.2581 6.45166 36.129 6.45166Z" fill="#333333"/>
<path d="M40 15.4839H0V24.5161H40V15.4839Z" fill="#DB2727"/>
<path d="M35.9996 33.5484C38.1286 33.5484 39.9996 32 39.9996 29.8064V24.5161H25.4189L35.9996 33.5484Z" fill="#DBB30F"/>
<path d="M36.1292 6.45166H3.87109L14.5808 15.4839H40.0001V10.1936C40.0001 8.00005 38.2582 6.45166 36.1292 6.45166Z" fill="#202121"/>
<path d="M25.4843 24.5161H40.0005V15.4839H14.5166L25.4843 24.5161Z" fill="#C10E0E"/>
<path d="M36.1292 6.45166H3.87109L33.7421 15.4839H40.0001V10.1936C40.0001 8.00005 38.2582 6.45166 36.1292 6.45166Z" fill="black"/>
<path d="M39.9996 17.2903V15.4839H33.4189L39.9996 17.2903Z" fill="#A00808"/>
<path d="M40 29.7419C40 32.129 38.2581 33.5483 36.129 33.5483H3.87097C1.74194 33.5483 0 31.8709 0 29.6774" fill="#D89F12"/>
</g>
<defs>
<clipPath id="clip0_4482_1522">
<rect width="40" height="40" fill="white"/>
</clipPath>
</defs>
</svg>
