<svg width="20" height="21" viewBox="0 0 20 21" fill="none" xmlns="http://www.w3.org/2000/svg">
<path fill-rule="evenodd" clip-rule="evenodd" d="M7.51307 2.40725C8.90224 1.04166 11.0978 1.04166 12.4869 2.40725L16.9179 6.76568C17.2452 7.08459 17.4608 7.50163 17.5486 7.95955C18.1075 11.0832 18.1474 14.2887 17.6684 17.4287L17.4927 18.5653C17.4209 19.0314 17.0297 19.3831 16.5586 19.3831H12.5668C12.1676 19.3831 11.8482 19.056 11.8482 18.6471V12.5551H8.14378V18.6471C8.14378 19.056 7.82443 19.3831 7.42525 19.3831H3.44137C2.97831 19.3831 2.57913 19.0396 2.50727 18.5653L2.33163 17.4287C1.85261 14.2887 1.89253 11.0832 2.45139 7.95955C2.53122 7.50163 2.75477 7.08459 3.0821 6.76568L7.51307 2.40725Z" fill="#E2B636"/>
</svg>
