<svg width="20" height="21" viewBox="0 0 20 21" fill="none" xmlns="http://www.w3.org/2000/svg">
<path d="M16.427 7.26497L16.427 7.26497L16.4294 7.26731C16.6463 7.47857 16.7972 7.76207 16.8604 8.08772C17.4048 11.1339 17.4436 14.2601 16.9765 17.3227C16.9764 17.3229 16.9764 17.3232 16.9764 17.3234L16.8009 18.4587L16.8009 18.4589C16.779 18.6008 16.6671 18.6833 16.5586 18.6833H12.5668C12.5648 18.6833 12.5638 18.6831 12.5635 18.6831L12.5629 18.6828C12.5627 18.6828 12.5621 18.6825 12.5613 18.682C12.5606 18.6815 12.5597 18.6807 12.5587 18.6796C12.5564 18.6773 12.5539 18.6739 12.552 18.6691C12.5502 18.6647 12.5482 18.6578 12.5482 18.6474V12.5554C12.5482 12.1688 12.2348 11.8554 11.8482 11.8554H8.14378C7.75718 11.8554 7.44378 12.1688 7.44378 12.5554V18.6474C7.44378 18.6578 7.44186 18.6647 7.44005 18.6691C7.43808 18.6739 7.43558 18.6773 7.43335 18.6796C7.43112 18.6819 7.42953 18.6827 7.42915 18.6828L7.42847 18.6831C7.4282 18.6831 7.42722 18.6833 7.42525 18.6833H3.44137C3.33213 18.6833 3.22055 18.6005 3.19938 18.4607L3.19906 18.4587L3.02363 17.3234C3.02359 17.3232 3.02356 17.323 3.02353 17.3227C2.55616 14.2586 2.59519 11.1307 3.14045 8.08307L3.14045 8.08307L3.14099 8.08002C3.19519 7.76913 3.34725 7.4849 3.57058 7.26731L3.57059 7.26731L3.57298 7.26497L8.00379 2.90668C8.00384 2.90663 8.00389 2.90658 8.00394 2.90653C9.1207 1.80889 10.8793 1.80889 11.9961 2.90653C11.9961 2.90658 11.9962 2.90663 11.9962 2.90668L16.427 7.26497Z" stroke="#979693" stroke-width="1.4" stroke-miterlimit="10" stroke-linejoin="round"/>
</svg>
