<svg version="1.2" xmlns="http://www.w3.org/2000/svg" viewBox="0 0 64 64" width="64" height="64">
	<title>Shopyyswiss_logo_icon-svg</title>
	<defs>
		<linearGradient id="g1" x2="1" gradientUnits="userSpaceOnUse" gradientTransform="matrix(-46.046,45.817,-29.74,-29.889,65.439,21.528)">
			<stop offset="0" stop-color="#e9be41"/>
			<stop offset="1" stop-color="#f32074"/>
		</linearGradient>
		<linearGradient id="g2" x2="1" gradientUnits="userSpaceOnUse" gradientTransform="matrix(-46.046,45.817,-19.005,-19.1,61.366,17.435)">
			<stop offset="0" stop-color="#e9be41"/>
			<stop offset="1" stop-color="#f32074"/>
		</linearGradient>
		<linearGradient id="g3" x2="1" gradientUnits="userSpaceOnUse" gradientTransform="matrix(-46.046,45.817,-9.565,-9.612,57.27,13.319)">
			<stop offset="0" stop-color="#e9be41"/>
			<stop offset="1" stop-color="#f32074"/>
		</linearGradient>
		<linearGradient id="g4" x2="1" gradientUnits="userSpaceOnUse" gradientTransform="matrix(3344.591,-3327.958,2159.545,2170.338,-3331.4,3389.07)">
			<stop offset="0" stop-color="#e9be41"/>
			<stop offset="1" stop-color="#f32074"/>
		</linearGradient>
		<linearGradient id="g5" x2="1" gradientUnits="userSpaceOnUse" gradientTransform="matrix(-46.046,45.817,-19.023,-19.118,46.514,2.508)">
			<stop offset="0" stop-color="#e9be41"/>
			<stop offset="1" stop-color="#f32074"/>
		</linearGradient>
		<linearGradient id="g6" x2="1" gradientUnits="userSpaceOnUse" gradientTransform="matrix(3344.582,-3327.956,694.735,698.206,-3323.2,3397.3)">
			<stop offset="0" stop-color="#e9be41"/>
			<stop offset="1" stop-color="#f32074"/>
		</linearGradient>
	</defs>
	<style>
		.s0 { fill: url(#g1) } 
		.s1 { fill: url(#g2) } 
		.s2 { fill: url(#g3) } 
		.s3 { fill: url(#g4) } 
		.s4 { fill: url(#g5) } 
		.s5 { fill: url(#g6) } 
	</style>
	<path id="Layer" class="s0" d="m64 32c0-8.7-3.4-16.5-9-22.3l-3.3 3.3c4.7 4.9 7.6 11.6 7.6 19q0 4.1-1.1 7.8c-1.3 4.4-3.7 8.4-6.9 11.6l-11.8 11.9c14.1-3.4 24.5-16.1 24.5-31.3z"/>
	<path id="Layer" class="s1" d="m52.4 32c0-5.5-2.1-10.4-5.6-14.1l-3.3 3.3c2.6 2.9 4.2 6.6 4.2 10.8q0 0 0 0c0 4.4-1.7 8.3-4.6 11.1l-9.2 9.3-6.6 6.6-3.9 4q2.7 0.8 5.6 1l4.6-4.6 12.8-12.9c3.3-3.3 5.4-7.7 5.9-12.6 0.1-0.6 0.1-1.2 0.1-1.9z"/>
	<path id="Layer" class="s2" d="m38.6 26.2l-3.3 3.3c0.5 0.7 0.8 1.6 0.8 2.5 0 1.2-0.5 2.2-1.2 3l-5.5 5.5-5.2 5.2-3.4 3.5-5 4.9-3.3 3.4q1.9 1.5 4 2.6l3.5-3.5 5.2-5.2 3.9-3.9 9.2-9.2c1.5-1.6 2.5-3.9 2.5-6.3 0-2.2-0.8-4.3-2.2-5.8z"/>
	<path id="Layer" class="s3" d="m5.8 24.2c1.3-4.4 3.7-8.4 6.9-11.6l11.8-11.9c-14.1 3.5-24.5 16.2-24.5 31.3 0 8.7 3.4 16.6 9 22.3l3.3-3.3c-4.7-4.9-7.6-11.6-7.6-19q0-4.1 1.1-7.8z"/>
	<path id="Layer" class="s4" d="m16.3 32c0-4.4 1.7-8.3 4.6-11.1l9.2-9.3 6.6-6.6 3.9-4q-2.7-0.8-5.6-1l-4.6 4.6-12.8 12.9c-3.3 3.3-5.5 7.7-5.9 12.6-0.1 0.6-0.1 1.2-0.1 1.9 0 5.5 2.1 10.4 5.6 14.1l3.3-3.4c-2.6-2.8-4.2-6.6-4.2-10.7q0 0 0 0z"/>
	<path id="Layer" class="s5" d="m29.1 29.1l5.5-5.6 5.2-5.2 3.4-3.4 5-5 3.3-3.3q-1.9-1.5-4-2.7l-3.5 3.5-5.2 5.3-3.9 3.8-9.2 9.2c-1.5 1.6-2.5 3.9-2.5 6.3 0 2.3 0.8 4.3 2.2 5.9l3.3-3.4c-0.5-0.7-0.8-1.6-0.8-2.5 0-1.1 0.5-2.2 1.2-2.9z"/>
</svg>