<svg version="1.2" xmlns="http://www.w3.org/2000/svg" viewBox="0 0 247 61" width="247" height="61">
	<title>logo_horizontal_dark-svg</title>
	<defs>
		<clipPath clipPathUnits="userSpaceOnUse" id="cp1">
			<path d="m43.5 18.85c3.09 3.16 5.15 7.47 5.15 12.28 0 1.83-0.35 3.49-0.69 4.98-0.86 2.82-2.4 5.48-4.63 7.47l-7.89 7.64c9.43-2.16 16.47-10.46 16.47-20.25 0-5.65-2.23-10.62-6.01-14.44z"/>
		</clipPath>
		<linearGradient id="g1" x2="1" gradientUnits="userSpaceOnUse" gradientTransform="matrix(-29.752,30.747,-31.775,-30.746,53.085,24.657)">
			<stop offset="0" stop-color="#e9be41"/>
			<stop offset="1" stop-color="#f32074"/>
		</linearGradient>
		<clipPath clipPathUnits="userSpaceOnUse" id="cp2">
			<path d="m38.01 24.16c1.72 1.83 2.75 4.32 2.75 6.97 0 2.83-1.2 5.32-3.09 7.14l-6.18 5.98-4.46 4.31-2.57 2.49c1.2 0.33 2.4 0.5 3.78 0.66l3.08-2.98 8.58-8.3c2.23-2.16 3.6-4.98 3.94-8.13 0-0.34 0-0.83 0-1.17 0-3.48-1.37-6.8-3.77-9.12z"/>
		</clipPath>
		<linearGradient id="g2" x2="1" gradientUnits="userSpaceOnUse" gradientTransform="matrix(-29.752,30.747,-31.775,-30.746,49.935,21.609)">
			<stop offset="0" stop-color="#e9be41"/>
			<stop offset="1" stop-color="#f32074"/>
		</linearGradient>
		<clipPath clipPathUnits="userSpaceOnUse" id="cp3">
			<path d="m32.52 29.47c0.35 0.5 0.52 1 0.52 1.66 0 0.67-0.35 1.33-0.86 1.83l-3.77 3.65-3.43 3.32-2.23 2.16-3.26 3.15-2.23 2.16c0.85 0.66 1.71 1.16 2.74 1.66l2.4-2.32 3.6-3.49 2.58-2.49 6.17-5.97c1.03-1 1.72-2.49 1.72-3.99 0-1.49-0.52-2.82-1.55-3.82z"/>
		</clipPath>
		<linearGradient id="g3" x2="1" gradientUnits="userSpaceOnUse" gradientTransform="matrix(-29.752,30.747,-31.644,-30.62,46.887,18.662)">
			<stop offset="0" stop-color="#e9be41"/>
			<stop offset="1" stop-color="#f32074"/>
		</linearGradient>
		<clipPath clipPathUnits="userSpaceOnUse" id="cp4">
			<path d="m8.68 31.13c0 5.65 2.23 10.63 6 14.44l2.23-2.15c-3.08-3.16-5.14-7.47-5.14-12.29 0-1.82 0.34-3.48 0.68-4.98 0.86-2.82 2.58-5.47 4.64-7.46l8.06-7.81c-9.44 2.16-16.47 10.3-16.47 20.25z"/>
		</clipPath>
		<linearGradient id="g4" x2="1" gradientUnits="userSpaceOnUse" gradientTransform="matrix(-29.752,30.746,-31.775,-30.746,36.828,8.928)">
			<stop offset="0" stop-color="#e9be41"/>
			<stop offset="1" stop-color="#f32074"/>
		</linearGradient>
		<clipPath clipPathUnits="userSpaceOnUse" id="cp5">
			<path d="m29.09 13.37l-8.57 8.3c-2.23 2.16-3.61 4.98-3.95 8.14 0 0.33 0 0.83 0 1.16 0 3.48 1.37 6.8 3.77 9.13l2.23-2.16c-1.71-1.83-2.74-4.32-2.74-6.97 0-2.82 1.2-5.31 3.09-7.14l6.17-5.97 4.46-4.32 2.57-2.49c-1.2-0.33-2.4-0.5-3.77-0.66z"/>
		</clipPath>
		<linearGradient id="g5" x2="1" gradientUnits="userSpaceOnUse" gradientTransform="matrix(-29.752,30.747,-31.775,-30.747,39.978,11.976)">
			<stop offset="0" stop-color="#e9be41"/>
			<stop offset="1" stop-color="#f32074"/>
		</linearGradient>
		<clipPath clipPathUnits="userSpaceOnUse" id="cp6">
			<path d="m38.35 15.2l-3.6 3.49-2.57 2.49-6.18 5.97c-1.02 1-1.71 2.49-1.71 3.98 0 1.5 0.51 2.83 1.54 3.82l2.23-2.16c-0.34-0.49-0.51-0.99-0.51-1.66 0-0.66 0.34-1.32 0.86-1.82l3.77-3.65 3.43-3.32 2.23-2.16 3.26-3.15 2.23-2.16c-0.86-0.67-1.72-1.16-2.75-1.66z"/>
		</clipPath>
		<linearGradient id="g6" x2="1" gradientUnits="userSpaceOnUse" gradientTransform="matrix(-29.752,30.747,-31.644,-30.62,43.029,14.926)">
			<stop offset="0" stop-color="#e9be41"/>
			<stop offset="1" stop-color="#f32074"/>
		</linearGradient>
	</defs>
	<style>
		.s0 { fill: #000000 } 
		.s1 { fill: url(#g1) } 
		.s2 { fill: url(#g2) } 
		.s3 { fill: url(#g3) } 
		.s4 { fill: url(#g4) } 
		.s5 { fill: url(#g5) } 
		.s6 { fill: url(#g6) } 
	</style>
	<path id="Layer" class="s0" d="m60.7 37.3l2.2-2.7c1.7 1.5 3.8 2.3 6 2.3 2 0 3.1-0.8 3.1-1.9 0-1.4-1.1-1.7-4-2.4-3.9-0.8-6.7-2-6.7-5.3 0-3.3 2.8-5.6 6.9-5.6 3.1 0 5.3 0.8 7.2 2.5l-2.1 2.8c-1.7-1.3-3.4-2-5.3-2-1.7 0-2.7 0.8-2.7 2 0 1.3 1 1.6 3.9 2.3 4 0.8 6.7 2 6.7 5.3 0 3.5-2.7 5.7-7.2 5.7-2.9 0-5.8-1-8-3z"/>
	<path id="Layer" class="s0" d="m95.3 22.2v17.7h-3.9v-7.3h-8.4v7.3h-4v-17.7h4v6.9h8.4v-6.9z"/>
	<path id="Layer" fill-rule="evenodd" class="s0" d="m98.2 31.1c0-4.9 4.5-9.3 9.8-9.3 5.3 0 9.8 4.2 9.8 9.3 0 5-4.5 9.3-9.8 9.3-5.3-0.1-9.8-4.3-9.8-9.3zm15.6 0c0-3.1-2.5-5.8-5.8-5.8-3.1 0-5.7 2.7-5.7 5.8 0 3.2 2.6 5.8 5.7 5.8 3.1-0.1 5.8-2.8 5.8-5.8z"/>
	<path id="Layer" fill-rule="evenodd" class="s0" d="m120.9 22.2h8.2c3.9 0 7 2.5 7 5.9 0 3.5-2.9 6-7 6h-4.3v5.8h-3.9zm7.8 8.5c1.9 0 3.3-1 3.3-2.5 0-1.5-1.4-2.5-3.3-2.5h-3.9v5z"/>
	<path id="Layer" class="s0" d="m144 33.6l-7.2-11.4h4.6l4.7 7.8 4.8-7.8h4.4l-7.2 11.4v6.3h-4.1z"/>
	<path id="Layer" class="s0" d="m156.5 37.4l1.4-1.6c1.6 1.5 3.4 2.6 6 2.6 2.9 0 4.3-1.5 4.3-3.1 0-1.8-1.7-2.7-5-3.3-3.7-0.9-6-2-6-5 0-2.8 2.6-5.2 6.2-5.2 2.7 0 4.8 1 6.5 2.5l-1.4 1.7c-1.5-1.5-3.4-2.3-5.3-2.3-2.2 0-3.9 1.5-3.9 3.1 0 1.8 1.9 2.5 5 3.2 3.6 0.8 6 2 6 5.1 0 2.8-2.3 5.2-6.6 5.2-2.9 0-5.3-1-7.2-2.9z"/>
	<path id="Layer" class="s0" d="m172.8 22.2h2.4l5.2 14.4 4.8-14.4h2.4l4.8 14.4 5.1-14.4h2.4l-6.3 17.7h-2.1l-5.1-15.1-5.2 15.1h-2z"/>
	<path id="Layer" class="s0" d="m205.1 22.2h-2.1v17.9h2.1z"/>
	<path id="Layer" class="s0" d="m208.5 37.4l1.4-1.6c1.5 1.5 3.4 2.6 6 2.6 2.9 0 4.3-1.5 4.3-3.1 0-1.8-1.7-2.7-5-3.3-3.8-0.9-6-2-6-5 0-2.8 2.6-5.2 6.2-5.2 2.7 0 4.8 1 6.5 2.5l-1.4 1.7c-1.5-1.5-3.4-2.3-5.3-2.3-2.2 0-3.9 1.5-3.9 3.1 0 1.8 1.8 2.5 4.9 3.2 3.6 0.8 6 2 6 5.1 0 2.8-2.2 5.2-6.5 5.2-2.9 0-5.3-1-7.2-2.9z"/>
	<path id="Layer" class="s0" d="m225 37.4l1.3-1.6c1.6 1.5 3.5 2.6 6 2.6 3 0 4.3-1.5 4.3-3.1 0-1.8-1.7-2.7-4.9-3.3-3.8-0.9-6-2-6-5 0-2.8 2.5-5.2 6.1-5.2 2.8 0 4.8 1 6.6 2.5l-1.4 1.7c-1.6-1.5-3.4-2.3-5.3-2.3-2.3 0-4 1.5-4 3.1 0 1.8 1.9 2.5 5 3.2 3.6 0.8 6 2 6 5.1 0 2.8-2.2 5.2-6.5 5.2-2.9 0-5.3-1-7.2-2.9z"/>
	<g id="Clip-Path" clip-path="url(#cp1)">
		<g id="Layer">
			<path id="Layer" class="s1" d="m69.6 34l-26.1 25.2-26.1-25.2 26.1-25.3z"/>
		</g>
	</g>
	<g id="Clip-Path" clip-path="url(#cp2)">
		<g id="Layer">
			<path id="Layer" class="s2" d="m59.3 36.8l-25.1 24.4-25.2-24.4 25.2-24.3z"/>
		</g>
	</g>
	<g id="Clip-Path" clip-path="url(#cp3)">
		<g id="Layer">
			<path id="Layer" class="s3" d="m47.4 38.3l-20.7 20.2-20.9-20.2 20.9-20.3z"/>
		</g>
	</g>
	<g id="Clip-Path" clip-path="url(#cp4)">
		<g id="Layer">
			<path id="Layer" class="s4" d="m43.2 28.1l-26.3 25.3-26.1-25.3 26.1-25.2z"/>
		</g>
	</g>
	<g id="Clip-Path" clip-path="url(#cp5)">
		<g id="Layer">
			<path id="Layer" class="s5" d="m51.4 25.3l-25.2 24.3-25.1-24.3 25.1-24.4z"/>
		</g>
	</g>
	<g id="Clip-Path" clip-path="url(#cp6)">
		<g id="Layer">
			<path id="Layer" class="s6" d="m54.6 23.8l-20.7 20.3-20.9-20.3 20.9-20.2z"/>
		</g>
	</g>
</svg>