<svg version="1.2" xmlns="http://www.w3.org/2000/svg" viewBox="0 0 260 187" width="260" height="187">
	<title>logo_vertical_light-svg</title>
	<defs>
		<clipPath clipPathUnits="userSpaceOnUse" id="cp1">
			<path d="m166.8 33.09c8.8 9.2 14.2 21.7 14.2 35.4 0 5-0.7 9.9-2.1 14.5-2.4 8.3-6.9 15.7-12.9 21.7l-22 22c26.3-6.3 45.9-30 45.9-58.3 0-16.2-6.4-30.8-16.8-41.6z"/>
		</clipPath>
		<linearGradient id="g1" x2="1" gradientUnits="userSpaceOnUse" gradientTransform="matrix(-85.819,85.819,-85.819,-85.819,193.656,50.043)">
			<stop offset="0" stop-color="#e9be41"/>
			<stop offset="1" stop-color="#f32074"/>
		</linearGradient>
		<clipPath clipPathUnits="userSpaceOnUse" id="cp2">
			<path d="m151.5 48.39c4.9 5.3 7.9 12.3 7.9 20 0 0 0 0 0 0.1 0 8.1-3.3 15.4-8.6 20.8l-17.4 17.3-12.3 12.3-7.3 7.3c3.4 0.9 6.9 1.6 10.5 1.9l8.6-8.6 24-24c6.1-6.1 10.2-14.4 11-23.5 0.1-1.2 0.2-2.3 0.2-3.5 0-10.2-4-19.4-10.4-26.3z"/>
		</clipPath>
		<linearGradient id="g2" x2="1" gradientUnits="userSpaceOnUse" gradientTransform="matrix(-85.819,85.819,-85.758,-85.758,184.868,41.254)">
			<stop offset="0" stop-color="#e9be41"/>
			<stop offset="1" stop-color="#f32074"/>
		</linearGradient>
		<clipPath clipPathUnits="userSpaceOnUse" id="cp3">
			<path d="m136.1 63.79c1 1.3 1.6 2.9 1.5 4.6 0 2.1-0.9 4.1-2.3 5.5l-10.3 10.4-9.7 9.7-6.4 6.4-9.3 9.3-6.3 6.3c2.4 1.8 4.9 3.5 7.5 4.9l6.5-6.5 9.8-9.8 7.2-7.2 17.2-17.2c3-3 4.8-7.1 4.8-11.7 0-4.2-1.5-8-4.1-10.9z"/>
		</clipPath>
		<linearGradient id="g3" x2="1" gradientUnits="userSpaceOnUse" gradientTransform="matrix(-85.818,85.818,-85.892,-85.892,176.355,32.743)">
			<stop offset="0" stop-color="#e9be41"/>
			<stop offset="1" stop-color="#f32074"/>
		</linearGradient>
		<clipPath clipPathUnits="userSpaceOnUse" id="cp4">
			<path d="m69.9 68.49c0 16.2 6.4 30.8 16.8 41.6l6.2-6.2c-8.8-9.2-14.2-21.7-14.2-35.4 0-5 0.7-9.9 2.1-14.5 2.4-8.3 6.9-15.7 12.9-21.7l22.1-22.1c-26.3 6.3-45.9 30-45.9 58.3z"/>
		</clipPath>
		<linearGradient id="g4" x2="1" gradientUnits="userSpaceOnUse" gradientTransform="matrix(-85.819,85.819,-85.878,-85.878,148.305,4.689)">
			<stop offset="0" stop-color="#e9be41"/>
			<stop offset="1" stop-color="#f32074"/>
		</linearGradient>
		<clipPath clipPathUnits="userSpaceOnUse" id="cp5">
			<path d="m126.8 17.39l-24 24c-6.1 6.1-10.2 14.4-11 23.5-0.1 1.2-0.2 2.3-0.2 3.5 0 10.2 4 19.4 10.4 26.3l6.2-6.2c-4.9-5.3-7.9-12.3-7.9-20 0 0 0 0 0-0.1 0-8.1 3.3-15.4 8.6-20.8l17.3-17.3 12.3-12.3 7.3-7.3c-3.4-0.9-6.9-1.6-10.5-1.9z"/>
		</clipPath>
		<linearGradient id="g5" x2="1" gradientUnits="userSpaceOnUse" gradientTransform="matrix(-85.818,85.819,-85.819,-85.819,157.091,13.478)">
			<stop offset="0" stop-color="#e9be41"/>
			<stop offset="1" stop-color="#f32074"/>
		</linearGradient>
		<clipPath clipPathUnits="userSpaceOnUse" id="cp6">
			<path d="m152.4 22.49l-9.8 9.8-7.2 7.2-17.2 17.2c-3 3-4.8 7.1-4.8 11.7 0 4.2 1.5 8 4.1 10.9l6.3-6.3c-1-1.3-1.6-2.9-1.5-4.6 0-2.1 0.9-4.1 2.3-5.5l10.3-10.3 9.7-9.7 6.4-6.4 9.3-9.3 6.3-6.3c-2.4-1.8-4.9-3.5-7.5-4.9z"/>
		</clipPath>
		<linearGradient id="g6" x2="1" gradientUnits="userSpaceOnUse" gradientTransform="matrix(-85.819,85.819,-85.818,-85.819,165.595,21.981)">
			<stop offset="0" stop-color="#e9be41"/>
			<stop offset="1" stop-color="#f32074"/>
		</linearGradient>
	</defs>
	<style>
		.s0 { fill: #ffffff } 
		.s1 { fill: url(#g1) } 
		.s2 { fill: url(#g2) } 
		.s3 { fill: url(#g3) } 
		.s4 { fill: url(#g4) } 
		.s5 { fill: url(#g5) } 
		.s6 { fill: url(#g6) } 
	</style>
	<path id="Layer" class="s0" d="m1 173.6l3.3-3.9c2.5 2.2 5.4 3.5 8.8 3.5 2.9 0 4.4-1.3 4.4-3 0-1.9-1.6-2.5-5.6-3.4-5.6-1.3-9.7-2.9-9.7-8.1 0-4.9 4-8.3 9.9-8.3 4.4 0 7.7 1.4 10.5 3.7l-3 4.1c-2.4-1.9-5.1-3-7.6-3-2.5 0-3.9 1.3-3.9 2.9 0 1.9 1.6 2.6 5.7 3.5 5.8 1.3 9.6 3 9.6 7.9 0 5.1-3.9 8.5-10.4 8.5-4.8 0.1-8.9-1.5-12-4.4z"/>
	<path id="Layer" class="s0" d="m51 150.9v26.7h-5.7v-11h-12.2v11h-5.7v-26.7h5.7v10.5h12.2v-10.5z"/>
	<path id="Layer" fill-rule="evenodd" class="s0" d="m55.3 164.2c0-7.5 6.5-13.8 14.2-13.8 7.7 0 14.2 6.3 14.2 13.8 0 7.5-6.5 13.9-14.2 13.9-7.7 0-14.2-6.4-14.2-13.9zm22.5 0c0-4.6-3.8-8.6-8.3-8.6-4.5 0-8.3 4-8.3 8.6 0 4.7 3.8 8.6 8.3 8.6 4.5 0.1 8.3-3.9 8.3-8.6z"/>
	<path id="Layer" fill-rule="evenodd" class="s0" d="m87.9 150.9h12c5.8 0 10.1 3.7 10.1 9 0 5.3-4.3 9-10.1 9h-6.3v8.7h-5.7zm11.4 12.8c2.8 0 4.8-1.5 4.8-3.8 0-2.3-1.9-3.8-4.8-3.8h-5.7v7.6z"/>
	<path id="Layer" class="s0" d="m121.6 168l-10.5-17.1h6.7l6.7 11.7 6.9-11.7h6.4l-10.4 17.1v9.6h-5.8z"/>
	<path id="Layer" class="s0" d="m139.8 173.8l1.9-2.4c2.3 2.3 5 3.9 8.8 3.9 4.1 0 6.2-2.3 6.2-4.7 0-2.8-2.5-4-7.2-5.1-5.4-1.2-8.8-2.9-8.8-7.6 0-4.3 3.8-7.6 9-7.6 4 0 6.9 1.6 9.4 3.8l-1.9 2.4c-2.2-2.1-4.9-3.4-7.7-3.4-3.3 0-5.7 2.2-5.7 4.6 0 2.8 2.6 3.7 7.2 4.8 5.1 1.2 8.8 3 8.8 7.7 0 4.2-3.2 7.7-9.4 7.7-4.5 0.1-7.9-1.5-10.6-4.1z"/>
	<path id="Layer" class="s0" d="m163.3 150.9h3.4l7.4 21.6 7.1-21.6h3.4l7.1 21.6 7.4-21.6h3.4l-9.1 26.7h-3l-7.5-22.8-7.5 22.8h-3z"/>
	<path id="Layer" class="s0" d="m210 150.9h-3v26.7h3z"/>
	<path id="Layer" class="s0" d="m214.9 173.8l1.9-2.4c2.3 2.3 5 3.9 8.8 3.9 4.1 0 6.2-2.3 6.2-4.7 0-2.8-2.5-4-7.2-5.1-5.4-1.2-8.8-2.9-8.8-7.6 0-4.3 3.8-7.6 9-7.6 4 0 6.9 1.6 9.4 3.8l-1.9 2.4c-2.2-2.1-4.9-3.4-7.7-3.4-3.3 0-5.7 2.2-5.7 4.6 0 2.8 2.6 3.7 7.2 4.8 5.1 1.2 8.8 3 8.8 7.7 0 4.2-3.2 7.7-9.4 7.7-4.4 0.1-7.9-1.5-10.6-4.1z"/>
	<path id="Layer" class="s0" d="m238.8 173.8l1.9-2.4c2.3 2.3 5 3.9 8.8 3.9 4.1 0 6.2-2.3 6.2-4.7 0-2.8-2.5-4-7.2-5.1-5.4-1.2-8.8-2.9-8.8-7.6 0-4.3 3.8-7.6 9-7.6 4 0 6.9 1.6 9.4 3.8l-1.9 2.4c-2.2-2.1-4.9-3.4-7.7-3.4-3.3 0-5.7 2.2-5.7 4.6 0 2.8 2.6 3.7 7.2 4.8 5.1 1.2 8.8 3 8.8 7.7 0 4.2-3.2 7.7-9.4 7.7-4.5 0.1-7.9-1.5-10.6-4.1z"/>
	<g id="Clip-Path" clip-path="url(#cp1)">
		<g id="Layer">
			<path id="Layer" class="s1" d="m239.8 76.8l-72.9 72.9-72.9-72.9 72.9-72.9z"/>
		</g>
	</g>
	<g id="Clip-Path" clip-path="url(#cp2)">
		<g id="Layer">
			<path id="Layer" class="s2" d="m211.1 85.2l-70.1 70.1-70.2-70.1 70.2-70.2z"/>
		</g>
	</g>
	<g id="Clip-Path" clip-path="url(#cp3)">
		<g id="Layer">
			<path id="Layer" class="s3" d="m178.1 89.2l-58.2 58.3-58.3-58.3 58.3-58.2z"/>
		</g>
	</g>
	<g id="Clip-Path" clip-path="url(#cp4)">
		<g id="Layer">
			<path id="Layer" class="s4" d="m165.7 60.1l-72.8 72.9-72.9-72.9 72.9-72.8z"/>
		</g>
	</g>
	<g id="Clip-Path" clip-path="url(#cp5)">
		<g id="Layer">
			<path id="Layer" class="s5" d="m189 51.8l-70.2 70.1-70.2-70.1 70.2-70.2z"/>
		</g>
	</g>
	<g id="Clip-Path" clip-path="url(#cp6)">
		<g id="Layer">
			<path id="Layer" class="s6" d="m198.1 47.7l-58.2 58.2-58.3-58.2 58.3-58.2z"/>
		</g>
	</g>
</svg>