<svg width="20" height="21" viewBox="0 0 20 21" fill="none" xmlns="http://www.w3.org/2000/svg">
<path fill-rule="evenodd" clip-rule="evenodd" d="M10.8333 3.00001C10.8333 2.53977 10.4602 2.16667 9.99999 2.16667C9.53975 2.16667 9.16666 2.53977 9.16666 3.00001V3.62501H8.70214C6.84792 3.62501 5.31325 5.06668 5.1975 6.91729L5.01333 9.86184C4.94312 10.9845 4.56621 12.0664 3.92366 12.9897C3.34309 13.8239 3.85994 14.976 4.86905 15.0971L7.70832 15.4378V16.3333C7.70832 17.599 8.73434 18.625 9.99999 18.625C11.2656 18.625 12.2917 17.599 12.2917 16.3333V15.4378L15.1309 15.0971C16.14 14.976 16.6569 13.8239 16.0763 12.9897C15.4338 12.0664 15.0569 10.9845 14.9866 9.86184L14.8025 6.91729C14.6867 5.06668 13.1521 3.62501 11.2978 3.62501H10.8333V3.00001ZM8.70214 4.87501C7.50797 4.87501 6.51961 5.80348 6.44507 6.99532L6.2609 9.93987C6.1764 11.2908 5.72285 12.5927 4.94965 13.7037C4.90769 13.764 4.94504 13.8473 5.01798 13.856L8.1327 14.2298C9.37311 14.3786 10.6269 14.3786 11.8673 14.2298L14.982 13.856C15.0549 13.8473 15.0923 13.764 15.0503 13.7037C14.2771 12.5927 13.8236 11.2908 13.7391 9.93987L13.5549 6.99532C13.4804 5.80348 12.492 4.87501 11.2978 4.87501H8.70214ZM9.99999 17.375C9.42469 17.375 8.95832 16.9086 8.95832 16.3333V15.7083H11.0417V16.3333C11.0417 16.9086 10.5753 17.375 9.99999 17.375Z" fill="#0C0524"/>
</svg>
