<svg width="20" height="21" viewBox="0 0 20 21" fill="none" xmlns="http://www.w3.org/2000/svg">
<path fill-rule="evenodd" clip-rule="evenodd" d="M14.1667 19.4129C16.4693 19.4129 18.3333 17.5489 18.3333 15.2463C18.3333 12.9436 16.4693 11.0796 14.1667 11.0796C11.864 11.0796 10 12.9436 10 15.2463C10 17.5489 11.864 19.4129 14.1667 19.4129ZM14.667 14.215C14.667 13.9388 14.4431 13.715 14.167 13.715C13.8908 13.715 13.667 13.9388 13.667 14.215V15.4433C13.667 15.6162 13.7563 15.7768 13.9032 15.8681L14.7365 16.3857C14.9711 16.5314 15.2793 16.4594 15.425 16.2248C15.5708 15.9903 15.4987 15.682 15.2642 15.5363L14.667 15.1653V14.215Z" fill="#E2B636"/>
<path fill-rule="evenodd" clip-rule="evenodd" d="M9.4907 18.6053C9.4871 18.6048 9.48352 18.6041 9.47934 18.6034C9.44135 18.5963 9.35378 18.5801 8.75033 18.5801C6.70075 18.5801 5.67596 18.5801 4.85613 18.2651C3.51981 17.7543 2.46223 16.6561 1.97033 15.2685C1.66699 14.4172 1.66699 13.353 1.66699 11.2248V8.47505C1.66699 6.34678 1.66699 5.28264 1.97033 4.43134C2.46223 3.04371 3.51981 1.94552 4.85613 1.43473C5.67596 1.11975 6.70075 1.11975 8.75033 1.11975C10.7999 1.11975 11.8247 1.11975 12.6445 1.43473C13.9808 1.94552 15.0384 3.04371 15.5303 4.43134C15.8337 5.28264 15.8337 6.34678 15.8337 8.47505V10.0183C15.8337 10.0183 11.9062 9.24605 9.81692 12.1242C7.72765 15.0024 9.81692 18.5801 9.81692 18.5801L9.68931 18.5919C9.53442 18.6063 9.51219 18.6084 9.4907 18.6053ZM5 5.85779C4.72386 5.85779 4.5 6.08165 4.5 6.35779C4.5 6.63393 4.72386 6.85779 5 6.85779H10.8333C11.1095 6.85779 11.3333 6.63393 11.3333 6.35779C11.3333 6.08165 11.1095 5.85779 10.8333 5.85779H5ZM4.5 9.45935C4.5 9.18321 4.72386 8.95935 5 8.95935H10C10.2761 8.95935 10.5 9.18321 10.5 9.45935C10.5 9.73549 10.2761 9.95935 10 9.95935H5C4.72386 9.95935 4.5 9.73549 4.5 9.45935ZM5 12.0609C4.72386 12.0609 4.5 12.2848 4.5 12.5609C4.5 12.8371 4.72386 13.0609 5 13.0609H7.5C7.77614 13.0609 8 12.8371 8 12.5609C8 12.2848 7.77614 12.0609 7.5 12.0609H5Z" fill="#E2B636"/>
</svg>
