<svg width="20" height="21" viewBox="0 0 20 21" fill="none" xmlns="http://www.w3.org/2000/svg">
<g clip-path="url(#clip0_6055_73576)">
<path d="M5.81802 5.99591C5.81802 5.99591 10.9773 5.99591 14.1709 5.99591M5.49712 5.99591V5.87919C5.49712 3.80325 6.88959 1.99409 8.87531 1.47719C9.60862 1.28544 10.3831 1.28544 11.1165 1.47719C13.1022 1.99409 14.4946 3.80325 14.4946 5.87919V5.99591H15.9118C16.4556 5.99591 16.9088 6.39609 16.9912 6.93801L17.1972 8.36365C17.6009 11.1816 17.6009 14.0329 17.1972 16.8508C16.9995 18.2098 15.9201 19.2603 14.5688 19.402L13.9756 19.4604C11.3307 19.7355 8.66932 19.7355 6.02444 19.4604L5.4312 19.402C4.07992 19.2603 3.00055 18.2098 2.8028 16.8508C2.39907 14.0329 2.39907 11.1816 2.8028 8.36365L3.00879 6.93801C3.09118 6.39609 3.54436 5.99591 4.08816 5.99591H5.50536H5.49712Z" stroke="#979693" stroke-width="1.4" stroke-miterlimit="10"/>
<path d="M4.81758 8.23809C4.81758 8.62469 5.13098 8.93809 5.51758 8.93809C5.90418 8.93809 6.21758 8.62469 6.21758 8.23809H4.81758ZM4.81758 5.5V8.23809H6.21758V5.5H4.81758Z" fill="#979693"/>
<path d="M13.7775 8.23809C13.7775 8.62469 14.0909 8.93809 14.4775 8.93809C14.8641 8.93809 15.1775 8.62469 15.1775 8.23809H13.7775ZM13.7775 5.5V8.23809H15.1775V5.5H13.7775Z" fill="#979693"/>
</g>
<defs>
<clipPath id="clip0_6055_73576">
<rect width="20" height="20" fill="white" transform="translate(0 0.5)"/>
</clipPath>
</defs>
</svg>
