<svg width="20" height="21" viewBox="0 0 20 21" fill="none" xmlns="http://www.w3.org/2000/svg">
<g clip-path="url(#clip0_6055_73589)">
<path fill-rule="evenodd" clip-rule="evenodd" d="M14.4946 5.8208H15.9118C16.4556 5.8208 16.9088 6.22098 16.9912 6.7629L17.1972 8.18854C17.6009 11.0065 17.6009 13.8578 17.1972 16.6757C16.9995 18.0347 15.9201 19.0852 14.5688 19.2269L13.9756 19.2853C11.3307 19.5604 8.66932 19.5604 6.02444 19.2853L5.4312 19.2269C4.07992 19.0852 3.00055 18.0347 2.8028 16.6757C2.39907 13.8578 2.39907 11.0065 2.8028 8.18854L3.00879 6.7629C3.09118 6.22098 3.54436 5.8208 4.08816 5.8208H5.50536H14.4946ZM4.81758 8.06299V5.91333H6.21758V8.06299C6.21758 8.44959 5.90418 8.76299 5.51758 8.76299C5.13098 8.76299 4.81758 8.44959 4.81758 8.06299ZM13.7776 8.06303V5.91337H15.1776V8.06303C15.1776 8.44963 14.8642 8.76303 14.4776 8.76303C14.091 8.76303 13.7776 8.44963 13.7776 8.06303Z" fill="#E2B636"/>
<path d="M5.49707 5.82084C5.49707 3.7449 6.88954 1.93574 8.87526 1.41884C9.60858 1.22709 10.3831 1.22709 11.1164 1.41884C13.1021 1.93574 14.4946 3.7449 14.4946 5.82084" stroke="#E2B636" stroke-width="1.4" stroke-miterlimit="10"/>
</g>
<defs>
<clipPath id="clip0_6055_73589">
<rect width="20" height="20" fill="white" transform="translate(0 0.383301)"/>
</clipPath>
</defs>
</svg>
