<svg width="40" height="40" viewBox="0 0 40 40" fill="none" xmlns="http://www.w3.org/2000/svg">
<path d="M36.6666 6.08203H3.33333C1.49238 6.08203 0 7.57441 0 9.41536V30.7486C0 32.5896 1.49238 34.082 3.33333 34.082H36.6666C38.5075 34.082 39.9999 32.5896 39.9999 30.7486V9.41536C39.9999 7.57441 38.5075 6.08203 36.6666 6.08203Z" fill="#E0E0E0"/>
<path d="M20 14.082H40V18.082H20V14.082Z" fill="#B73831"/>
<path d="M24 16.082H40V14.082H22C22 14.6125 22.2107 15.1212 22.5858 15.4962C22.9609 15.8713 23.4696 16.082 24 16.082Z" fill="#D4483F"/>
<path d="M24 12.082H40V10.082H22C22 10.6125 22.2107 11.1212 22.5858 11.4962C22.9609 11.8713 23.4696 12.082 24 12.082Z" fill="#F5F5F5"/>
<path d="M24 20.082H40V18.082H22C22 18.6125 22.2107 19.1212 22.5858 19.4962C22.9609 19.8713 23.4696 20.082 24 20.082Z" fill="#F5F5F5"/>
<path d="M0 22.082H39.9999V26.082H0V22.082Z" fill="#B73831"/>
<path d="M0 30.7487C0 31.6327 0.351189 32.4806 0.976308 33.1057C1.60143 33.7308 2.44927 34.082 3.33333 34.082H36.6666C37.5506 34.082 38.3985 33.7308 39.0236 33.1057C39.6487 32.4806 39.9999 31.6327 39.9999 30.7487V30.082H0V30.7487Z" fill="#B73831"/>
<path d="M36.6666 6.08203H20V10.082H40V9.41536C40 8.5313 39.6488 7.68346 39.0236 7.05834C38.3985 6.43322 37.5507 6.08203 36.6666 6.08203Z" fill="#B73831"/>
<path d="M20 22.082V6.08203H3.33333C2.44927 6.08203 1.60143 6.43322 0.976308 7.05834C0.351189 7.68346 0 8.5313 0 9.41536V22.082H20Z" fill="#2B66BA"/>
<path d="M2 6.36345V17.4153C2 18.1226 2.28095 18.8009 2.78105 19.301C3.28114 19.801 3.95942 20.082 4.66666 20.082H20V6.08203H3.33333C2.87419 6.08249 2.42016 6.17832 2 6.36345Z" fill="#3477CC"/>
<path d="M3.99761 8.74866L4.61636 10.0654L6.00011 10.2765L4.99886 11.3014L5.23519 12.7486L3.99761 12.0654L2.75995 12.7486L2.99636 11.3014L1.99512 10.2765L3.37878 10.0654L3.99761 8.74866Z" fill="#E0E0E0"/>
<path d="M4.61625 10.0653L4 8.75391V12.0667L5.23508 12.7486L4.99875 11.3014L6 10.2765L4.61625 10.0653Z" fill="white"/>
<path d="M9.99761 8.74866L10.6164 10.0654L12.0001 10.2765L10.9989 11.3014L11.2352 12.7486L9.99761 12.0654L8.75995 12.7486L8.99636 11.3014L7.99512 10.2765L9.37878 10.0654L9.99761 8.74866Z" fill="#E0E0E0"/>
<path d="M10.6162 10.0653L10 8.75391V12.0667L11.2351 12.7486L10.9987 11.3014L12 10.2765L10.6162 10.0653Z" fill="white"/>
<path d="M15.9976 8.74866L16.6164 10.0654L18.0001 10.2765L16.9989 11.3014L17.2352 12.7486L15.9976 12.0654L14.7599 12.7486L14.9964 11.3014L13.9951 10.2765L15.3788 10.0654L15.9976 8.74866Z" fill="#E0E0E0"/>
<path d="M16.6162 10.0653L16 8.75391V12.0667L17.2351 12.7486L16.9987 11.3014L18 10.2765L16.6162 10.0653Z" fill="white"/>
<path d="M3.99761 15.4153L4.61636 16.732L6.00011 16.9431L4.99886 17.968L5.23519 19.4153L3.99761 18.732L2.75995 19.4153L2.99636 17.968L1.99512 16.9431L3.37878 16.732L3.99761 15.4153Z" fill="#E0E0E0"/>
<path d="M4.61625 16.7321L4 15.4207V18.7335L5.23508 19.4154L4.99875 17.9681L6 16.9432L4.61625 16.7321Z" fill="white"/>
<path d="M9.99761 15.4153L10.6164 16.732L12.0001 16.9431L10.9989 17.968L11.2352 19.4153L9.99761 18.732L8.75995 19.4153L8.99636 17.968L7.99512 16.9431L9.37878 16.732L9.99761 15.4153Z" fill="#E0E0E0"/>
<path d="M10.6162 16.7321L10 15.4207V18.7335L11.2351 19.4154L10.9987 17.9681L12 16.9432L10.6162 16.7321Z" fill="white"/>
<path d="M15.9976 15.4153L16.6164 16.732L18.0001 16.9431L16.9989 17.968L17.2352 19.4153L15.9976 18.732L14.7599 19.4153L14.9964 17.968L13.9951 16.9431L15.3788 16.732L15.9976 15.4153Z" fill="#E0E0E0"/>
<path d="M16.6162 16.7321L16 15.4207V18.7335L17.2351 19.4154L16.9987 17.9681L18 16.9432L16.6162 16.7321Z" fill="white"/>
<path d="M24.0001 8.08203H39.7185C39.4595 7.48792 39.0328 6.98227 38.4908 6.62703C37.9487 6.27179 37.3147 6.08239 36.6666 6.08203H22C22 6.34468 22.0517 6.60476 22.1522 6.84742C22.2528 7.09007 22.4001 7.31055 22.5858 7.49627C22.7715 7.68199 22.992 7.82931 23.2347 7.92981C23.4773 8.03031 23.7374 8.08204 24.0001 8.08203Z" fill="#D4483F"/>
<path d="M4.1305 24.0715H39.9999V22.082H2C2 23.1866 2.89533 24.082 4.1305 24.0715Z" fill="#D4483F"/>
<path d="M2 30.082C2 31.1866 2.89541 32.082 4.13066 32.0715H39.7241C39.9058 31.6542 39.9997 31.2039 39.9999 30.7487V30.082H2Z" fill="#D4483F"/>
<path d="M4.1305 28.0715H39.9999V26.082H2C2 27.1866 2.89533 28.082 4.1305 28.0715Z" fill="#F5F5F5"/>
</svg>
