<svg width="20" height="21" viewBox="0 0 20 21" fill="none" xmlns="http://www.w3.org/2000/svg">
<path fill-rule="evenodd" clip-rule="evenodd" d="M5.83301 5.27775C5.83301 2.9789 7.70082 1.11108 9.99967 1.11108C12.2985 1.11108 14.1663 2.9789 14.1663 5.27775C14.1663 7.5766 12.2985 9.44442 9.99967 9.44442C7.70082 9.44442 5.83301 7.5766 5.83301 5.27775Z" fill="#E2B636"/>
<path fill-rule="evenodd" clip-rule="evenodd" d="M1.00896 15.7147C1.00896 13.4944 2.96315 11.6882 5.36554 11.6882H5.75996C5.9751 11.6882 6.19024 11.7214 6.38745 11.7794L7.39143 12.0859C9.08566 12.5996 10.9233 12.5996 12.6175 12.0859L13.6215 11.7794C13.8277 11.7214 14.0339 11.6882 14.249 11.6882H14.6434C17.0458 11.6882 19 13.4944 19 15.7147V16.9906C19 17.8026 18.3635 18.4902 17.503 18.6228C12.5369 19.3767 7.46315 19.3767 2.49701 18.6228C1.63645 18.4902 1 17.8026 1 16.9906V15.7147H1.00896Z" fill="#E2B636"/>
</svg>
